# xmcd CD database file
#
# Track frame offsets:
#	150
#	14660
#	30560
#	50052
#	67147
#	81817
#	100820
#	116162
#	131545
#	154907
#	176480
#	191317
#	207037
#
# Disc length: 2840 seconds
#
# Revision: 0
# Processed by: cddbd v1.5.2PL0 Copyright (c) Steve Scherf et al.
# Submitted via: CDex 1.70beta2
#
DISCID=b20b160d
DTITLE=Country&Western - Verschiedene - Flophouse String Band - HEIMWÄRTS
DYEAR=1992
DGENRE=Country
TTITLE0=Schutzengel
TTITLE1=Verlorene Zeit
TTITLE2=Glück
TTITLE3=Wilder Osten
TTITLE4=Wir nannten ihn Tim
TTITLE5=Daddy ich komm zurück
TTITLE6=Cowboytreff am Lagerfeuer
TTITLE7=Leben auf der Überholspur
TTITLE8=Gloria
TTITLE9=Sattel ab
TTITLE10=Wie Robert Redford
TTITLE11=Alkoholproblem
TTITLE12=Heimwärts
EXTD=YEAR: 1992
EXTT0=
EXTT1=
EXTT2=
EXTT3=
EXTT4=
EXTT5=
EXTT6=
EXTT7=
EXTT8=
EXTT9=
EXTT10=
EXTT11=
EXTT12=
PLAYORDER=
